inDegrees=yes
name=ik_tiny_file
DataType=double
version=3
OpenSimVersion=4.4-2022-07-23-0e9fedc
endheader
time	pelvis_tilt	pelvis_list	pelvis_rotation	pelvis_tx	pelvis_ty	pelvis_tz	hip_flexion_r	hip_adduction_r	hip_rotation_r	knee_angle_r	knee_angle_r_beta	ankle_angle_r	subtalar_angle_r	mtp_angle_r	hip_flexion_l	hip_adduction_l	hip_rotation_l	knee_angle_l	knee_angle_l_beta	ankle_angle_l	subtalar_angle_l	mtp_angle_l	lumbar_extension	lumbar_bending	lumbar_rotation	arm_flex_r	arm_add_r	arm_rot_r	elbow_flex_r	pro_sup_r	wrist_flex_r	wrist_dev_r	arm_flex_l	arm_add_l	arm_rot_l	elbow_flex_l	pro_sup_l	wrist_flex_l	wrist_dev_l
0	80.73281289192924	-16.66178950818518	25.21881349422979	0	0.9399999999999999	0	7.367907764073693	-3.680166412779594	0	21.06951801261221	0.3677324611283353	-0.802619382350605	0	0	7.367907764073693	-3.680166412779594	0	21.06951801261221	0.3677324611283353	-0.802619382350605	0	0	-88.20480774996098	24.68749125644277	21.24323329139999	-61.34835447103195	14.63465664643677	-26.40761228079105	51.51895036009135	29.64811316834179	0	2.764419200498684	-0.7925695302262888	-7.5458407714287	89.98949853713721	0.09122042469209982	29.64811316834179	0	2.764419200498684
0.02	80.88878374577422	-16.6620037302459	25.27088340862827	0	0.9399999999999999	0	7.377303420084282	-3.684412608732473	0	21.07934403617995	0.3679039575919708	-0.8037139010532776	0	0	7.377303420084282	-3.684412608732473	0	21.07934403617995	0.3679039575919708	-0.8037139010532776	0	0	-88.27705865744744	24.67658584290361	21.28046725488408	-61.40034884880524	14.66153145131004	-26.43107547428037	51.54381845114411	29.65710719873038	0	2.767032331670323	-0.7557748526300065	-7.477610434769812	89.98950595250058	0.09720257847725541	29.65710719873038	0	2.767032331670323
0.04	81.08216110194151	-16.69864549353584	25.34772364773275	0	0.9399999999999999	0	7.394644789784332	-3.692253899322623	0	21.09746455988627	0.3682202203928319	-0.8057338198711138	0	0	7.394644789784332	-3.692253899322623	0	21.09746455988627	0.3682202203928319	-0.8057338198711138	0	0	-88.43855497451544	24.71084099654317	21.40464385656239	-61.43832246973747	14.66814098079549	-26.49214524802187	51.60964487422609	29.67371456136587	0	2.771857967355634	-0.6597468926803037	-7.390217765260386	89.98950641826471	0.1053385095402763	29.67371456136587	0	2.771857967355634
0.06	81.22063405897347	-16.71021591958391	25.4118571957807	0	0.9399999999999999	0	7.403399057231938	-3.696205969962785	0	21.10661613372049	0.3683799454879783	-0.8067541527880208	0	0	7.403399057231938	-3.696205969962785	0	21.10661613372049	0.3683799454879783	-0.8067541527880208	0	0	-88.52890931037579	24.70100970053144	21.41147742337091	-61.47221942274535	14.62619046351774	-26.44663618847307	51.63308561946087	29.68208494051477	0	2.774286381586225	-0.6035672226671669	-7.3017980302493	89.98952006240802	0.113600663513315	29.68208494051477	0	2.774286381586225
0.08	81.39006842710624	-16.72214604474842	25.47556249187063	0	0.9399999999999999	0	7.41540526503911	-3.701628459806714	0	21.11915875860014	0.3685988555889707	-0.8081533849453463	0	0	7.41540526503911	-3.701628459806714	0	21.11915875860014	0.3685988555889707	-0.8081533849453463	0	0	-88.65478873785092	24.70951814501199	21.48023199891549	-61.51708890247774	14.63049967754724	-26.46008162257953	51.68551154290736	29.69356875941927	0	2.777618353484046	-0.5507253817616292	-7.214807647152184	89.98953647701391	0.1215077057714528	29.69356875941927	0	2.777618353484046
0.1	81.51935617321973	-16.73762909757257	25.53284685503308	0	0.9399999999999999	0	7.427345910696183	-3.707018890056678	0	21.13163043106835	0.3688165273367714	-0.8095452906869173	0	0	7.427345910696183	-3.707018890056678	0	21.13163043106835	0.3688165273367714	-0.8095452906869173	0	0	-88.74981211974738	24.71814443952012	21.57073461524335	-61.54132958785428	14.64263742071122	-26.48620451262417	51.73578174748572	29.70498426367473	0	2.780928442442929	-0.4706121140150503	-7.131153452288572	89.98956106881408	0.1312164703204257	29.70498426367473	0	2.780928442442929
0.12	81.64946581620443	-16.77140071002275	25.5930482750802	0	0.9399999999999999	0	7.443224272684502	-3.71418669774704	0	21.14820621026173	0.3691058292597794	-0.8113963823356751	0	0	7.443224272684502	-3.71418669774704	0	21.14820621026173	0.3691058292597794	-0.8113963823356751	0	0	-88.82854380073704	24.75168631738592	21.63392855968208	-61.60100212078616	14.5847186297446	-26.49190921159692	51.76730665580055	29.7201627501869	0	2.78532812576717	-0.4168184767557078	-7.072642162817827	89.98963218810624	0.1430218166359561	29.7201627501869	0	2.78532812576717
0.14	81.76545263374292	-16.78627184792785	25.65116081717751	0	0.9399999999999999	0	7.454312827386976	-3.719187675106078	0	21.15978189345927	0.3693078630447443	-0.8126895858219553	0	0	7.454312827386976	-3.719187675106078	0	21.15978189345927	0.3693078630447443	-0.8126895858219553	0	0	-88.87518664226403	24.77353509193387	21.63814746673954	-61.68236526791581	14.52579777064165	-26.45364749007342	51.80259927556799	29.73075257388561	0	2.788394539636709	-0.4230075805119138	-7.060930572550641	89.98969145053536	0.1518593794638973	29.73075257388561	0	2.788394539636709
0.16	81.87532461238213	-16.80162558978622	25.70312193220079	0	0.9399999999999999	0	7.465978253981266	-3.724448230567919	0	21.17195504143292	0.3695203245572168	-0.8140502026642149	0	0	7.465978253981266	-3.724448230567919	0	21.17195504143292	0.3695203245572168	-0.8140502026642149	0	0	-88.92838246190439	24.78618308175953	21.66961310892227	-61.75177217100135	14.52981499593002	-26.46029462957552	51.85758424888125	29.74189151040969	0	2.791618766292907	-0.3897842744153833	-7.02951944705011	89.98968694074352	0.1659878442736402	29.74189151040969	0	2.791618766292907
0.18	81.9651291259115	-16.80762192928144	25.74865775212038	0	0.9399999999999999	0	7.474164547117348	-3.728136213288472	0	21.1804992812115	0.3696694496734331	-0.815005396950356	0	0	7.474164547117348	-3.728136213288472	0	21.1804992812115	0.3696694496734331	-0.815005396950356	0	0	-88.97835351328668	24.78653962306976	21.70114652845823	-61.79787528447698	14.56908263717427	-26.46453367914865	51.9149682015246	29.74970064379373	0	2.793876891330517	-0.321618748246301	-6.975072426139108	89.98964469368784	0.1871576566790833	29.74970064379373	0	2.793876891330517
0.2	82.07688390566082	-16.82815624911154	25.79928385078044	0	0.9399999999999999	0	7.483641474420382	-3.732405422134534	0	21.19038743572588	0.3698420305266549	-0.8161112623563961	0	0	7.483641474420382	-3.732405422134534	0	21.19038743572588	0.3698420305266549	-0.8161112623563961	0	0	-89.05700808214085	24.78720499088039	21.73565949162824	-61.84650674253627	14.57017112875847	-26.46835767255189	51.95842791756679	29.758740120833	0	2.796490155295724	-0.230134951529154	-6.922241251850497	89.98964800424822	0.2133604313691757	29.758740120833	0	2.796490155295724
0.22	82.20402306212937	-16.85071126515421	25.85728910610444	0	0.9399999999999999	0	7.495405951310564	-3.737705386696766	0	21.20265667351034	0.3700561691227038	-0.8174841308182985	0	0	7.495405951310564	-3.737705386696766	0	21.20265667351034	0.3700561691227038	-0.8174841308182985	0	0	-89.14990083686986	24.80266552763756	21.78895580859807	-61.91046581527599	14.55240137703001	-26.44466858472024	51.99250880772281	29.76996143476664	0	2.799733456372472	-0.1837857443974465	-6.889138391818048	89.98964468526638	0.2359463976965314	29.76996143476664	0	2.799733456372472
0.24	82.34507411746966	-16.89124317779108	25.92193432707997	0	0.9399999999999999	0	7.515236115380133	-3.746642268365853	0	21.22331985835516	0.3704168097321941	-0.8197981475375777	0	0	7.515236115380133	-3.746642268365853	0	21.22331985835516	0.3704168097321941	-0.8197981475375777	0	0	-89.24880180038205	24.81350152331635	21.87029561576944	-61.96359184490245	14.54336280676734	-26.43997603312304	52.01914375919606	29.78888113383359	0	2.805201199510809	-0.1480136441101738	-6.864294836203558	89.98964315419933	0.2616790154686266	29.78888113383359	0	2.805201199510809
0.26	82.46872676936627	-16.88312812656445	25.9695803539447	0	0.9399999999999999	0	7.526270903933008	-3.751611644632541	0	21.23481594644258	0.3706174543204189	-0.8210862290688233	0	0	7.526270903933008	-3.751611644632541	0	21.23481594644258	0.3706174543204189	-0.8210862290688233	0	0	-89.31043402657097	24.80310571857752	21.86501666422896	-62.02924820149551	14.53167501895523	-26.41892924912505	52.04057954682622	29.79940114793968	0	2.808238424653885	-0.1050130662542186	-6.803687370443884	89.98963662299037	0.3228041379708145	29.79940114793968	0	2.808238424653885
0.28	82.60197549981078	-16.88705893241805	26.02423350713267	0	0.9399999999999999	0	7.537384281601082	-3.756616016130142	0	21.24638938974979	0.3708194490119227	-0.8223835945634645	0	0	7.537384281601082	-3.756616016130142	0	21.24638938974979	0.3708194490119227	-0.8223835945634645	0	0	-89.38117845194189	24.80505862151793	21.87732129991123	-62.09708395327515	14.53697779666616	-26.42101888331473	52.08221180554306	29.80999473588702	0	2.811295868498322	-0.05301622476135619	-6.750498544378187	89.98962886569771	0.3944901422461287	29.80999473588702	0	2.811295868498322
0.3	82.72096599262061	-16.91189727621969	26.08602380927082	0	0.9399999999999999	0	7.552136327353698	-3.763258766612041	0	21.2617443876633	0.3710874442821502	-0.8241058794274735	0	0	7.552136327353698	-3.763258766612041	0	21.2617443876633	0.3710874442821502	-0.8241058794274735	0	0	-89.46554476185797	24.82631998886902	21.93215136958772	-62.1601954712445	14.55049861012815	-26.42728550929275	52.13944357959705	29.82405566010278	0	2.815352735663401	0.03517156523730888	-6.722809602302411	89.98961542760971	0.4718573015181552	29.82405566010278	0	2.815352735663401
0.32	82.83992378113629	-16.94225382311221	26.14694120156954	0	0.9399999999999999	0	7.569268748467348	-3.770970823818501	0	21.27956912816162	0.3713985446921594	-0.8261064793111295	0	0	7.569268748467348	-3.770970823818501	0	21.27956912816162	0.3713985446921594	-0.8261064793111295	0	0	-89.53105645224193	24.84430245018936	21.99338304053682	-62.22158906071343	14.56982368196183	-26.41535090667285	52.20047827637867	29.84037903260762	0	2.820059322450121	0.1015342898450103	-6.708120361446609	89.98960339524679	0.5555793962083154	29.84037903260762	0	2.820059322450121
